PathFileType	4	(X/Y/Z)	C:\Users\Biomechanik\SynologyDrive\AlexP\Athlete_03\Athlete_3_22_07_06\sq_70_EMG\marker_experimental.trc																																																																																																																																																																												
DataRate	CameraRate	NumFrames	NumMarkers	Units	OrigDataRate	OrigDataStartFrame	OrigNumFrames																																																																																																																																																																								
200	200	4	58	mm	200	1344	1537																																																																																																																																																																								
Frame#	Time	BL			BR			GLAB			RFHD			LFHD			C7			T6			SPINMOL			SPINM2			SPINM3			T12			BELTOL			BELT2			BELT3			SACROL			SACR2			SACR3			LTHOL			LTH2			LTH3			LSHAOL			LSHA2			LSHA3			LHEE			LTOE			LM5			RTHOL			RTH2			RTH3			RSHAOL			RSHA2			RSHA3			RHEE			RTOE			RM5			STRN			XIPH			LACR			LUAOL			LUA2			LUA3			LLAOL			LLA2			LLA3			LWRU			RACR			RUAOL			RUA3			RLAOL			RLA2			RLA3			RWRU			USERMO0			USERMO1			USERMO2			USERMO3			USERMO4			USERMO5		
		X1	Y1	Z1	X2	Y2	Z2	X3	Y3	Z3	X4	Y4	Z4	X5	Y5	Z5	X6	Y6	Z6	X7	Y7	Z7	X8	Y8	Z8	X9	Y9	Z9	X10	Y10	Z10	X11	Y11	Z11	X12	Y12	Z12	X13	Y13	Z13	X14	Y14	Z14	X15	Y15	Z15	X16	Y16	Z16	X17	Y17	Z17	X18	Y18	Z18	X19	Y19	Z19	X20	Y20	Z20	X21	Y21	Z21	X22	Y22	Z22	X23	Y23	Z23	X24	Y24	Z24	X25	Y25	Z25	X26	Y26	Z26	X27	Y27	Z27	X28	Y28	Z28	X29	Y29	Z29	X30	Y30	Z30	X31	Y31	Z31	X32	Y32	Z32	X33	Y33	Z33	X34	Y34	Z34	X35	Y35	Z35	X36	Y36	Z36	X37	Y37	Z37	X38	Y38	Z38	X39	Y39	Z39	X40	Y40	Z40	X41	Y41	Z41	X42	Y42	Z42	X43	Y43	Z43	X44	Y44	Z44	X45	Y45	Z45	X46	Y46	Z46	X47	Y47	Z47	X48	Y48	Z48	X49	Y49	Z49	X50	Y50	Z50	X51	Y51	Z51	X52	Y52	Z52	X53	Y53	Z53	X54	Y54	Z54	X55	Y55	Z55	X56	Y56	Z56	X57	Y57	Z57	X58	Y58	Z58
																																																																																																																																																																															
1345	6.72	88.83630371	1259.48645	-2254.288574	257.4412842	1283.762451	-38.30645752	499.5136414	1469.818237	-1143.226563	434.0882568	1480.223633	-1070.709229	440.3996887	1476.933716	-1225.015625	266.6234131	1373.53186	-1137.533813	123.4382782	1239.249268	-1139.402954	102.3134613	1210.143433	-1143.513184	72.8561554	1154.152954	-1094.531006	80.20024872	1152.314453	-1143.966187	66.19326019	1096.999268	-1144.430298	32.54154587	1070.186646	-1138.070068	22.0814991	1009.080627	-1087.808716	13.84165382	1010.871155	-1137.276733	6.671125412	933.0307007	-1170.587036	18.17930031	941.2086792	-1121.462036	-18.65564537	886.7783203	-1130.505371	116.7455673	725.0029907	-1405.162964	78.44329071	655.0799561	-1398.023438	123.516449	664.7602539	-1418.735229	100.2157898	327.4212952	-1511.056763	68.41756439	255.1564789	-1514.811035	113.6623077	269.4407043	-1529.51062	72.28975677	39.40227127	-1495.995972	271.20578	49.83771896	-1555.762573	204.927887	21.60396957	-1646.59436	109.2291031	696.8057251	-901.1622314	147.951828	635.0252075	-868.4468994	101.8310394	636.2822266	-888.3635254	63.86197281	320.9497681	-800.6541138	106.8967743	262.6976013	-768.3300781	62.64805222	259.968811	-791.8995972	53.78144455	37.5765686	-821.5628052	247.1517792	46.17511368	-745.9381104	178.3784637	35.95521927	-660.1410522	357.5695496	1229.127686	-1156.410522	328.5863342	1076.049683	-1151.841064	223.570755	1310.354004	-1335.308472	100.1910477	1213.263062	-1356.950317	70.1594162	1167.288086	-1319.491821	70.75363159	1165.463623	-1370.417236	52.66147614	1134.048462	-1447.728882	92.86341095	1154.529053	-1494.766357	89.13513947	1186.226807	-1455.979736	131.0034637	1233.925171	-1509.200073	264.6634827	1309.54248	-954.3394165	148.3308716	1199.725098	-908.2446899	94.84816742	1170.215942	-902.3361816	105.8130112	1163.470093	-826.1866455	148.8982849	1211.162598	-833.6607666	144.1032104	1193.83728	-785.6782837	176.2481232	1235.911865	-765.9251709	0.085680597	0.0218539	-0.093455397	0.04245	0.053918801	-0.054339401	0.028077399	0.044655599	-0.034660801	0.102969997	0.169834003	-0.760257006	0.388505012	2.978499889	-0.397834003	2.750780106	0	0
1346	6.725	88.76082611	1259.362061	-2254.294434	257.379364	1283.921875	-38.30370712	499.4690552	1469.698975	-1143.265259	434.0439148	1480.148315	-1070.746338	440.3590698	1476.80249	-1225.052856	266.5727844	1373.512817	-1137.543457	123.3161697	1239.274536	-1139.384277	102.1835632	1210.162231	-1143.498291	72.69918823	1154.188354	-1094.512695	80.06652832	1152.335693	-1143.942993	66.02522278	1097.018311	-1144.38623	32.36397171	1070.186523	-1138.027222	21.91026497	1009.092834	-1087.747803	13.67467403	1010.866028	-1137.218872	6.485412598	932.9801636	-1170.532227	18.0298481	941.1640015	-1121.380859	-18.76791573	886.7075195	-1130.422729	116.7087631	724.9520874	-1405.018799	78.42014313	655.0184326	-1397.885742	123.4946976	664.7105713	-1418.587402	100.2338409	327.4129028	-1510.956665	68.42978668	255.1512146	-1514.740356	113.6771927	269.4354248	-1529.425537	72.28923035	39.39733124	-1495.991943	271.2116699	49.83253479	-1555.747437	204.9316711	21.6223526	-1646.583496	109.0939941	696.8294678	-901.0332642	147.8196259	635.05896	-868.3060913	101.7110367	636.3007813	-888.2475586	63.80543518	320.9527893	-800.5811768	106.8293915	262.698822	-768.2507324	62.59454346	259.9586487	-791.8408203	53.76989365	37.57335663	-821.5464478	247.1472015	46.18239212	-745.9317017	178.3735809	35.9487648	-660.1309814	357.4389954	1229.047607	-1156.381836	328.4189148	1075.977905	-1151.775635	223.5024719	1310.313354	-1335.295044	100.04776	1213.30127	-1356.888672	70.00048828	1167.3479	-1319.424194	70.58042145	1165.531738	-1370.351807	52.46814728	1134.10791	-1447.681152	92.68138885	1154.54248	-1494.720459	88.97425842	1186.257568	-1455.94873	130.8715973	1233.896606	-1509.185181	264.58255	1309.554199	-954.3283691	148.1794128	1199.802979	-908.2177734	94.68091583	1170.324951	-902.2972412	105.648468	1163.585693	-826.137085	148.766037	1211.249512	-833.6228638	143.9631195	1193.933228	-785.6361694	176.1348572	1235.99231	-765.8955688	0.085092597	0.021219	-0.094743297	0.041315001	0.0546978	-0.054027099	0.0281858	0.045615599	-0.034966901	0.101092003	0.170987993	-0.76571101	0.387376994	2.978970051	-0.397983015	2.751339912	0	0
1347	6.73	88.68656921	1259.227295	-2254.304199	257.3175964	1284.071411	-38.30331421	499.4317627	1469.577515	-1143.302612	434.007843	1480.070801	-1070.780884	440.3217468	1476.671143	-1225.086792	266.5220642	1373.491333	-1137.549805	123.1960373	1239.298706	-1139.361938	102.0554428	1210.181641	-1143.479858	72.54438019	1154.223511	-1094.490967	79.93305969	1152.357788	-1143.91687	65.85890961	1097.038818	-1144.340942	32.18632507	1070.190063	-1137.982544	21.7371769	1009.108948	-1087.685547	13.50549889	1010.865356	-1137.15918	6.294355869	932.9313354	-1170.47522	17.87366867	941.1207275	-1121.298218	-18.88638306	886.6392212	-1130.339722	116.6553802	724.9015503	-1404.876221	78.37861633	654.9592285	-1397.749512	123.4553528	664.6610718	-1418.440674	100.2354965	327.4023132	-1510.855347	68.42965698	255.1420135	-1514.667114	113.6785126	269.4287415	-1529.339233	72.28742218	39.39147949	-1495.989136	271.2169495	49.82778931	-1555.732788	204.9350281	21.64112854	-1646.573242	108.9484406	696.8522339	-900.9080811	147.6763458	635.0914917	-868.1691895	101.5804367	636.3184204	-888.1356812	63.74009323	320.9530334	-800.5126343	106.7555237	262.6998596	-768.1743774	62.53336334	259.9478149	-791.7831421	53.75775146	37.56941986	-821.5297241	247.1424408	46.18965912	-745.9255371	178.3683167	35.94266891	-660.1207275	357.3123779	1228.969238	-1156.350708	328.2642212	1075.906006	-1151.707153	223.434433	1310.268433	-1335.280029	99.91178131	1213.334839	-1356.822876	69.84246826	1167.403442	-1319.355225	70.40988922	1165.595581	-1370.285034	52.27520752	1134.161621	-1447.629028	92.50205994	1154.549316	-1494.674561	88.81523895	1186.282227	-1455.919556	130.7411804	1233.86377	-1509.171265	264.5002441	1309.564941	-954.3165894	148.0327606	1199.872314	-908.1900635	94.51861572	1170.423462	-902.2572021	105.4890366	1163.69104	-826.086792	148.6365662	1211.328369	-833.5858765	143.8262329	1194.020996	-785.5930176	176.0217285	1236.06665	-765.8665161	0.084106199	0.020507099	-0.095674001	0.039882701	0.055539101	-0.0537779	0.028327901	0.0467746	-0.035277799	0.099537797	0.172885001	-0.771288991	0.385834992	2.979409933	-0.397830009	2.752170086	0	0
1348	6.735	88.61271667	1259.082153	-2254.317139	257.2554321	1284.211548	-38.30531311	499.4018555	1469.45459	-1143.337524	433.9795227	1479.991821	-1070.812744	440.2882996	1476.540405	-1225.116699	266.471283	1373.467407	-1137.552612	123.0790176	1239.321899	-1139.33606	101.9302063	1210.201416	-1143.457642	72.39318848	1154.258301	-1094.465942	79.80072784	1152.380859	-1143.888062	65.69549561	1097.060913	-1144.294678	32.00989151	1070.197754	-1137.936035	21.56328773	1009.129272	-1087.622314	13.33510399	1010.869568	-1137.098145	6.102433681	932.8840942	-1170.41687	17.71141434	941.0806274	-1121.21582	-19.01104736	886.5756226	-1130.25769	116.5851059	724.8522339	-1404.736694	78.31830597	654.9029541	-1397.616577	123.3978958	664.6124268	-1418.297241	100.2201767	327.3898315	-1510.753906	68.41676331	255.1290894	-1514.592285	113.6657257	269.42099	-1529.253052	72.28429413	39.38475037	-1495.987427	271.2214966	49.82363892	-1555.718994	204.9379425	21.65969467	-1646.563599	108.7938461	696.8738403	-900.7877808	147.5236053	635.1226807	-868.0370483	101.4403992	636.3353271	-888.027771	63.66613007	320.9509583	-800.4476318	106.6760254	262.7012024	-768.1009521	62.46476364	259.9373169	-791.7255249	53.74505234	37.5648613	-821.5128174	247.1374817	46.19691467	-745.9195557	178.3626862	35.93693924	-660.1103516	357.1906433	1228.893677	-1156.317261	328.1237183	1075.835327	-1151.635864	223.366684	1310.219727	-1335.263306	99.78479767	1213.362427	-1356.75354	69.68689728	1167.453613	-1319.285767	70.24390411	1165.653442	-1370.217529	52.083992	1134.208008	-1447.572388	92.32753754	1154.548584	-1494.628906	88.65969086	1186.299561	-1455.892334	130.6133423	1233.826294	-1509.158325	264.416748	1309.574951	-954.3042603	147.892334	1199.932373	-908.1616821	94.36347961	1170.509888	-902.2161255	105.3366013	1163.78479	-826.0360107	148.5110016	1211.398438	-833.5501099	143.6941223	1194.099487	-785.5490723	175.9096527	1236.134521	-765.8378906	0.082837299	0.0197352	-0.096227303	0.038224701	0.056364998	-0.053543501	0.0284895	0.048146501	-0.035564601	0.0984191	0.175354004	-0.776820004	0.383886993	2.979820013	-0.397442997	2.753249884	0	0
